# xmcd CD database file
#
# Track frame offsets:
#	150
#	21357
#	43912
#	64850
#	86422
#	106200
#	130327
#	151747
#	174360
#	193100
#
# Disc length: 2927 seconds
#
# Revision: 0
# Processed by: cddbd v1.5.1PL2 Copyright (c) Steve Scherf et al.
# Submitted via: CDex 1.51
#
DISCID=7f0b6d0a
DTITLE=伊藤銀次 - PERSON TO PERSON
DYEAR=1985
DGENRE=Rock
TTITLE0=夜を駆けぬけて/RUNNING THROUGH THE NIGHTS
TTITLE1=ノー・モア・ブルース・トゥナイト/NO MORE BLUES TONIGHT
TTITLE2=サイレント・ダンサー/SILENT DANCER
TTITLE3=フラワーズ・イン・ザ・レイン〜心わけあいたいエンジェル
TTITLE4=いつでもここにいる/I WANNA BE WITH YOU
TTITLE5=ニュー・ライフ/NEW LIFE
TTITLE6=フューチュア・ショック/FUTURE SHOCK
TTITLE7=愛をあきらめないで
TTITLE8=ロックン・ロール・ドクター/ROCK'N ROLL DOCTOR
TTITLE9=星を見上げて/POLAR STAR
EXTD=YEAR: 1985
EXTT0=
EXTT1=
EXTT2=
EXTT3=
EXTT4=
EXTT5=
EXTT6=
EXTT7=
EXTT8=
EXTT9=
PLAYORDER=
